<svg version="1.0" xmlns="http://www.w3.org/2000/svg"
 width="426.000000pt" height="300.000000pt" viewBox="0 0 426.000000 483.000000"
 preserveAspectRatio="xMidYMid meet">
 
<g transform="translate(0.000000,483.000000) scale(0.100000,-0.100000)"
fill="#000000" stroke="none">
<path d="M1923 4000 c-364 -65 -673 -120 -687 -124 -13 -3 -27 -15 -31 -25 -3
-12 58 -198 161 -486 92 -257 163 -470 158 -474 -11 -10 -245 -176 -260 -184
-6 -3 -32 5 -59 18 -55 28 -110 31 -170 10 l-40 -14 -216 214 c-118 118 -222
215 -230 215 -39 0 -48 -34 -150 -585 -55 -303 -101 -559 -101 -570 -1 -11 60
-229 135 -484 l136 -464 -35 -32 c-126 -119 -55 -336 115 -353 71 -6 131 18
179 73 l39 44 514 -94 c283 -52 520 -99 528 -103 8 -4 20 -27 27 -51 37 -126
198 -181 307 -104 102 71 116 186 38 308 -11 18 11 63 199 418 l212 397 697 0
c529 0 700 3 709 12 7 7 12 23 12 37 0 15 -103 354 -230 755 l-229 728 31 26
c111 94 76 291 -61 344 -40 15 -120 11 -162 -7 l-38 -18 -173 155 c-561 499
-607 538 -635 537 -15 -1 -326 -54 -690 -119z m598 -140 l-35 -150 -33 0 c-45
0 -101 -25 -138 -60 l-30 -29 -394 99 c-217 55 -395 101 -397 103 -2 2 31 9
74 16 42 7 275 48 517 91 242 43 447 79 456 79 13 1 11 -21 -20 -149z m528
-230 c170 -151 309 -276 307 -277 -1 -1 -156 37 -345 85 l-343 87 -19 49 c-10
27 -30 62 -45 77 l-26 27 32 139 c17 76 33 144 36 151 5 16 -15 33 403 -338z
m-1270 20 c240 -61 443 -113 452 -116 10 -3 19 -19 22 -42 3 -20 8 -44 12 -54
5 -13 -60 -64 -315 -245 -176 -125 -324 -229 -329 -231 -4 -1 -70 172 -146
385 -76 213 -140 394 -143 401 -2 6 -1 12 4 12 4 0 204 -50 443 -110z m1228
-311 l332 -84 5 -30 c4 -16 13 -42 20 -57 l15 -28 -617 -680 c-339 -374 -617
-678 -619 -676 -3 2 241 1067 342 1492 3 14 25 31 60 49 37 18 65 40 82 66 14
22 31 38 37 36 6 -2 160 -41 343 -88z m-790 -136 c-41 -60 -161 -234 -266
-387 -105 -154 -191 -277 -191 -274 0 3 -25 74 -55 159 -37 104 -52 157 -45
164 17 16 614 443 623 444 4 1 -26 -47 -66 -106z m-5 -678 c-92 -396 -172
-719 -177 -719 -6 1 -60 141 -121 310 -109 301 -111 310 -95 335 69 110 556
809 558 803 1 -5 -73 -333 -165 -729z m1347 520 c2 -3 99 -307 216 -677 116
-370 215 -683 219 -695 l7 -23 -625 0 c-344 0 -626 2 -626 4 0 5 718 1354 737
1384 12 19 20 22 41 17 15 -4 29 -8 31 -10z m-2801 -228 l172 -173 -11 -33
c-7 -19 -9 -58 -6 -92 l5 -59 -246 -175 c-135 -96 -248 -173 -250 -170 -7 6
151 875 158 875 3 0 83 -78 178 -173z m2216 -535 l-337 -632 -196 0 -197 0
-12 33 c-10 27 -10 35 5 54 32 39 1068 1180 1071 1178 1 -1 -149 -286 -334
-633z m-1345 344 c34 -93 61 -174 61 -180 0 -6 -38 -66 -83 -133 l-84 -122
-117 118 -118 118 17 49 c11 33 15 64 11 96 l-7 47 127 90 c70 50 128 90 130
88 2 -1 30 -78 63 -171z m-615 -261 c34 -22 116 -30 161 -15 l37 12 124 -123
c68 -68 124 -127 124 -132 0 -4 -160 -242 -356 -527 l-356 -520 -42 6 c-22 4
-42 7 -43 8 -4 3 -263 899 -260 901 35 30 573 405 579 405 5 0 19 -7 32 -15z
m820 -314 l94 -264 -164 164 c-90 90 -164 167 -164 172 0 13 135 208 138 200
1 -5 44 -127 96 -272z m20 -385 c-8 -23 -14 -59 -12 -81 l3 -40 -503 -268
c-277 -148 -505 -268 -506 -266 -2 2 155 234 348 516 l351 512 167 -166 166
-166 -14 -41z m724 -124 c-1 -5 -92 -176 -202 -381 -115 -216 -202 -369 -207
-364 -6 6 -57 535 -59 611 0 1 7 2 15 2 24 0 93 69 107 106 l12 34 169 0 c93
0 167 -4 165 -8z m-669 -96 c6 -8 33 -23 59 -34 l48 -21 23 -298 c23 -291 23
-297 5 -308 -10 -5 -40 -31 -65 -57 l-46 -47 -526 96 c-474 88 -526 99 -531
117 -3 11 -4 21 -3 22 6 6 1013 543 1018 544 4 0 12 -6 18 -14z"/>
</g>
</svg>